<svg width="53" height="58" viewBox="0 0 53 58" fill="none" xmlns="http://www.w3.org/2000/svg">
<path d="M4 26.5L26.5 19L49 26.5M26.5 4V52.75" stroke="#386BF6" stroke-width="7.5"/>
<path d="M4.4825 34C6.625 44.745 15.44 50.2825 21.2475 52.8175C23.05 53.605 23.9525 54 26.5 54C29.05 54 29.95 53.605 31.7525 52.8175C33.2 52.1875 34.83 51.3675 36.5 50.3325M44 43.76C46.9075 40.07 49 35.24 49 28.9775V25.0425C49 17.0475 49 13.05 48.055 11.705C47.1125 10.3625 43.355 9.075 35.8375 6.5025L34.405 6.0125C30.4875 4.67 28.53 4 26.5 4C24.4725 4 22.5125 4.67 18.595 6.0125L17.1625 6.5C9.645 9.075 5.8875 10.3625 4.945 11.705C4 13.05 4 17.05 4 25.0425V26.5" stroke="#386BF6" stroke-width="7.5" stroke-linecap="round"/>
</svg>
