<svg width="79" height="69" viewBox="0 0 79 69" fill="none" xmlns="http://www.w3.org/2000/svg">
<path d="M25.5 20V38H53.5V20H25.5ZM27.5 22H51.5V36H27.5V22ZM29.5 24V34H32.5C34.154 34 35.5 32.654 35.5 31V27C35.5 25.346 34.154 24 32.5 24H29.5ZM39.5 24C38.397 24 37.5 24.897 37.5 26V32C37.5 33.103 38.397 34 39.5 34H41.5V32H39.5V30H41.5V28H39.5V26H41.5V24H39.5ZM43.191 24L45.275 33.025C45.3396 33.3014 45.4958 33.5479 45.7182 33.7243C45.9406 33.9007 46.2161 33.9967 46.5 33.9967C46.7839 33.9967 47.0594 33.9007 47.2818 33.7243C47.5042 33.5479 47.6604 33.3014 47.725 33.025L49.809 24H47.756L46.5 29.44L45.244 24H43.191ZM31.5 26H32.5C32.7652 26 33.0196 26.1054 33.2071 26.2929C33.3946 26.4804 33.5 26.7348 33.5 27V31C33.5 31.2652 33.3946 31.5196 33.2071 31.7071C33.0196 31.8946 32.7652 32 32.5 32H31.5V26Z" fill="#386BF6"/>
<circle cx="39.5" cy="46.5" r="2.5" fill="#386BF6"/>
</svg>
