<svg width="66" height="71" viewBox="0 0 66 71" fill="none" xmlns="http://www.w3.org/2000/svg">
<path d="M25.5 37.5C25.5 38.8789 26.6211 40 28 40H34.25V35C34.25 34.3086 34.8086 33.75 35.5 33.75H40.5V22.5C40.5 21.1211 39.3789 20 38 20H28C26.6211 20 25.5 21.1211 25.5 22.5V37.5ZM32.1914 22.9414L28.4414 26.6914C28.1992 26.9336 27.8008 26.9336 27.5586 26.6914C27.3164 26.4492 27.3164 26.0508 27.5586 25.8086L31.3086 22.0586C31.5508 21.8164 31.9492 21.8164 32.1914 22.0586C32.4336 22.3008 32.4336 22.6992 32.1914 22.9414ZM35.9414 24.1914L29.6914 30.4414C29.4492 30.6836 29.0508 30.6836 28.8086 30.4414C28.5664 30.1992 28.5664 29.8008 28.8086 29.5586L35.0586 23.3086C35.3008 23.0664 35.6992 23.0664 35.9414 23.3086C36.1836 23.5508 36.1836 23.9492 35.9414 24.1914ZM40.5 35H35.5V40L40.5 35Z" fill="#386BF6"/>
<circle cx="33" cy="48.5" r="2.5" fill="#386BF6"/>
</svg>
