<svg width="71" height="71" viewBox="0 0 71 71" fill="none" xmlns="http://www.w3.org/2000/svg">
<path d="M27.5 22H31.51V20H25.5V26H27.5V22ZM27.5 34H25.5V40H31.51V38H27.5V34ZM43.5 38H39.5V40H45.5V34H43.5V38ZM39.5 22H43.5V26H45.5V20H39.5V22Z" fill="#386BF6"/>
<path d="M28.5 29H34.5V23H28.5V29ZM30.5 25H32.5V27H30.5V25ZM28.5 37H34.5V31H28.5V37ZM30.5 33H32.5V35H30.5V33ZM42.5 23H36.5V29H42.5V23ZM40.5 27H38.5V25H40.5V27ZM36.51 31H38.51V33H36.51V31ZM38.51 33H40.51V35H38.51V33ZM40.51 35H42.51V37H40.51V35ZM40.51 31H42.51V33H40.51V31Z" fill="#386BF6"/>
<circle cx="35.5" cy="48.5" r="2.5" fill="#386BF6"/>
</svg>
