<svg width="79" height="69" viewBox="0 0 79 69" fill="none" xmlns="http://www.w3.org/2000/svg">
<path d="M25.5 25.5V43.5H53.5V25.5H25.5ZM27.5 27.5H51.5V41.5H27.5V27.5ZM29.5 29.5V39.5H32.5C34.154 39.5 35.5 38.154 35.5 36.5V32.5C35.5 30.846 34.154 29.5 32.5 29.5H29.5ZM39.5 29.5C38.397 29.5 37.5 30.397 37.5 31.5V37.5C37.5 38.603 38.397 39.5 39.5 39.5H41.5V37.5H39.5V35.5H41.5V33.5H39.5V31.5H41.5V29.5H39.5ZM43.191 29.5L45.275 38.525C45.3396 38.8014 45.4958 39.0479 45.7182 39.2243C45.9406 39.4007 46.2161 39.4967 46.5 39.4967C46.7839 39.4967 47.0594 39.4007 47.2818 39.2243C47.5042 39.0479 47.6604 38.8014 47.725 38.525L49.809 29.5H47.756L46.5 34.94L45.244 29.5H43.191ZM31.5 31.5H32.5C32.7652 31.5 33.0196 31.6054 33.2071 31.7929C33.3946 31.9804 33.5 32.2348 33.5 32.5V36.5C33.5 36.7652 33.3946 37.0196 33.2071 37.2071C33.0196 37.3946 32.7652 37.5 32.5 37.5H31.5V31.5Z" fill="#E7E7E7"/>
</svg>
