<svg width="71" height="71" viewBox="0 0 71 71" fill="none" xmlns="http://www.w3.org/2000/svg">
<path d="M27.5 27.5H31.51V25.5H25.5V31.5H27.5V27.5ZM27.5 39.5H25.5V45.5H31.51V43.5H27.5V39.5ZM43.5 43.5H39.5V45.5H45.5V39.5H43.5V43.5ZM39.5 27.5H43.5V31.5H45.5V25.5H39.5V27.5Z" fill="#E7E7E7"/>
<path d="M28.5 34.5H34.5V28.5H28.5V34.5ZM30.5 30.5H32.5V32.5H30.5V30.5ZM28.5 42.5H34.5V36.5H28.5V42.5ZM30.5 38.5H32.5V40.5H30.5V38.5ZM42.5 28.5H36.5V34.5H42.5V28.5ZM40.5 32.5H38.5V30.5H40.5V32.5ZM36.51 36.5H38.51V38.5H36.51V36.5ZM38.51 38.5H40.51V40.5H38.51V38.5ZM40.51 40.5H42.51V42.5H40.51V40.5ZM40.51 36.5H42.51V38.5H40.51V36.5Z" fill="#E7E7E7"/>
</svg>
