<svg width="66" height="71" viewBox="0 0 66 71" fill="none" xmlns="http://www.w3.org/2000/svg">
<g clip-path="url(#clip0_8_931)">
<path d="M25.5 43C25.5 44.3789 26.6211 45.5 28 45.5H34.25V40.5C34.25 39.8086 34.8086 39.25 35.5 39.25H40.5V28C40.5 26.6211 39.3789 25.5 38 25.5H28C26.6211 25.5 25.5 26.6211 25.5 28V43ZM32.1914 28.4414L28.4414 32.1914C28.1992 32.4336 27.8008 32.4336 27.5586 32.1914C27.3164 31.9492 27.3164 31.5508 27.5586 31.3086L31.3086 27.5586C31.5508 27.3164 31.9492 27.3164 32.1914 27.5586C32.4336 27.8008 32.4336 28.1992 32.1914 28.4414ZM35.9414 29.6914L29.6914 35.9414C29.4492 36.1836 29.0508 36.1836 28.8086 35.9414C28.5664 35.6992 28.5664 35.3008 28.8086 35.0586L35.0586 28.8086C35.3008 28.5664 35.6992 28.5664 35.9414 28.8086C36.1836 29.0508 36.1836 29.4492 35.9414 29.6914ZM40.5 40.5H35.5V45.5L40.5 40.5Z" fill="#E7E7E7"/>
</g>
<defs>
<clipPath id="clip0_8_931">
<rect width="15" height="20" fill="white" transform="translate(25.5 25.5)"/>
</clipPath>
</defs>
</svg>
